REM DIRINDEX 1\2,1\3,1\4
REM DIRNAME folder01,folder02,folder03,folder04
TITLE ""
FILE "088 088_TOEFL_3900.mp3" MP3
  TRACK 01 AUDIO
    TITLE "2:cjc151_3825"
    INDEX 01 00:00:00
  TRACK 02 AUDIO
    TITLE "0:"
    INDEX 01 00:01:28
  TRACK 03 AUDIO
    TITLE "3:cjc151_3826"
    INDEX 01 00:03:06
  TRACK 04 AUDIO
    TITLE "0:"
    INDEX 01 00:07:25
  TRACK 05 AUDIO
    TITLE "2:cjc151_3827"
    INDEX 01 00:09:02
  TRACK 06 AUDIO
    TITLE "0:"
    INDEX 01 00:10:08
  TRACK 07 AUDIO
    TITLE "3:cjc151_3828"
    INDEX 01 00:11:62
  TRACK 08 AUDIO
    TITLE "0:"
    INDEX 01 00:15:25
  TRACK 09 AUDIO
    TITLE "2:cjc151_3829"
    INDEX 01 00:17:02
  TRACK 10 AUDIO
    TITLE "0:"
    INDEX 01 00:18:15
  TRACK 11 AUDIO
    TITLE "3:cjc151_3830"
    INDEX 01 00:19:67
  TRACK 12 AUDIO
    TITLE "0:"
    INDEX 01 00:23:53
  TRACK 13 AUDIO
    TITLE "2:cjc151_3831"
    INDEX 01 00:25:33
  TRACK 14 AUDIO
    TITLE "0:"
    INDEX 01 00:26:42
  TRACK 15 AUDIO
    TITLE "3:cjc151_3832"
    INDEX 01 00:28:23
  TRACK 16 AUDIO
    TITLE "0:"
    INDEX 01 00:32:03
  TRACK 17 AUDIO
    TITLE "2:cjc151_3833"
    INDEX 01 00:33:56
  TRACK 18 AUDIO
    TITLE "0:"
    INDEX 01 00:34:51
  TRACK 19 AUDIO
    TITLE "3:cjc151_3834"
    INDEX 01 00:36:31
  TRACK 20 AUDIO
    TITLE "0:"
    INDEX 01 00:40:01
  TRACK 21 AUDIO
    TITLE "2:cjc151_3835"
    INDEX 01 00:41:55
  TRACK 22 AUDIO
    TITLE "0:"
    INDEX 01 00:42:65
  TRACK 23 AUDIO
    TITLE "3:cjc151_3836"
    INDEX 01 00:44:40
  TRACK 24 AUDIO
    TITLE "0:"
    INDEX 01 00:47:68
  TRACK 25 AUDIO
    TITLE "2:cjc151_3837"
    INDEX 01 00:49:57
  TRACK 26 AUDIO
    TITLE "0:"
    INDEX 01 00:50:52
  TRACK 27 AUDIO
    TITLE "3:cjc151_3838"
    INDEX 01 00:52:36
  TRACK 28 AUDIO
    TITLE "0:"
    INDEX 01 00:55:51
  TRACK 29 AUDIO
    TITLE "2:cjc151_3839"
    INDEX 01 00:57:31
  TRACK 30 AUDIO
    TITLE "0:"
    INDEX 01 00:58:50
  TRACK 31 AUDIO
    TITLE "3:cjc151_3840"
    INDEX 01 01:00:31
  TRACK 32 AUDIO
    TITLE "0:"
    INDEX 01 01:05:26
  TRACK 33 AUDIO
    TITLE "2:cjc151_3841"
    INDEX 01 01:07:04
  TRACK 34 AUDIO
    TITLE "0:"
    INDEX 01 01:08:17
  TRACK 35 AUDIO
    TITLE "3:cjc151_3842"
    INDEX 01 01:09:65
  TRACK 36 AUDIO
    TITLE "0:"
    INDEX 01 01:13:40
  TRACK 37 AUDIO
    TITLE "2:cjc151_3843"
    INDEX 01 01:15:17
  TRACK 38 AUDIO
    TITLE "0:"
    INDEX 01 01:16:30
  TRACK 39 AUDIO
    TITLE "3:cjc151_3844"
    INDEX 01 01:18:02
  TRACK 40 AUDIO
    TITLE "0:"
    INDEX 01 01:22:54
  TRACK 41 AUDIO
    TITLE "2:cjc151_3845"
    INDEX 01 01:24:32
  TRACK 42 AUDIO
    TITLE "0:"
    INDEX 01 01:25:43
  TRACK 43 AUDIO
    TITLE "3:cjc151_3846"
    INDEX 01 01:27:16
  TRACK 44 AUDIO
    TITLE "0:"
    INDEX 01 01:30:56
  TRACK 45 AUDIO
    TITLE "2:cjc151_3847"
    INDEX 01 01:32:37
  TRACK 46 AUDIO
    TITLE "0:"
    INDEX 01 01:33:44
  TRACK 47 AUDIO
    TITLE "3:cjc151_3848"
    INDEX 01 01:35:20
  TRACK 48 AUDIO
    TITLE "0:"
    INDEX 01 01:38:67
  TRACK 49 AUDIO
    TITLE "2:cjc151_3849"
    INDEX 01 01:40:46
  TRACK 50 AUDIO
    TITLE "0:"
    INDEX 01 01:41:57
  TRACK 51 AUDIO
    TITLE "3:cjc151_3850"
    INDEX 01 01:43:35
  TRACK 52 AUDIO
    TITLE "0:"
    INDEX 01 01:46:65
  TRACK 53 AUDIO
    TITLE "2:cjc151_3851"
    INDEX 01 01:48:42
  TRACK 54 AUDIO
    TITLE "0:"
    INDEX 01 01:49:37
  TRACK 55 AUDIO
    TITLE "3:cjc151_3852"
    INDEX 01 01:51:17
  TRACK 56 AUDIO
    TITLE "0:"
    INDEX 01 01:54:41
  TRACK 57 AUDIO
    TITLE "2:cjc151_3853"
    INDEX 01 01:56:16
  TRACK 58 AUDIO
    TITLE "0:"
    INDEX 01 01:57:23
  TRACK 59 AUDIO
    TITLE "3:cjc151_3854"
    INDEX 01 01:59:04
  TRACK 60 AUDIO
    TITLE "0:"
    INDEX 01 02:03:30
  TRACK 61 AUDIO
    TITLE "2:cjc151_3855"
    INDEX 01 02:05:09
  TRACK 62 AUDIO
    TITLE "0:"
    INDEX 01 02:06:05
  TRACK 63 AUDIO
    TITLE "3:cjc151_3856"
    INDEX 01 02:07:57
  TRACK 64 AUDIO
    TITLE "0:"
    INDEX 01 02:10:71
  TRACK 65 AUDIO
    TITLE "2:cjc151_3857"
    INDEX 01 02:12:50
  TRACK 66 AUDIO
    TITLE "0:"
    INDEX 01 02:13:54
  TRACK 67 AUDIO
    TITLE "3:cjc151_3858"
    INDEX 01 02:15:31
  TRACK 68 AUDIO
    TITLE "0:"
    INDEX 01 02:19:46
  TRACK 69 AUDIO
    TITLE "2:cjc151_3859"
    INDEX 01 02:21:30
  TRACK 70 AUDIO
    TITLE "0:"
    INDEX 01 02:22:35
  TRACK 71 AUDIO
    TITLE "3:cjc151_3860"
    INDEX 01 02:24:12
  TRACK 72 AUDIO
    TITLE "0:"
    INDEX 01 02:28:08
  TRACK 73 AUDIO
    TITLE "2:cjc151_3861"
    INDEX 01 02:29:62
  TRACK 74 AUDIO
    TITLE "0:"
    INDEX 01 02:30:72
  TRACK 75 AUDIO
    TITLE "3:cjc151_3862"
    INDEX 01 02:32:51
  TRACK 76 AUDIO
    TITLE "0:"
    INDEX 01 02:36:02
  TRACK 77 AUDIO
    TITLE "2:cjc151_3863"
    INDEX 01 02:37:64
  TRACK 78 AUDIO
    TITLE "0:"
    INDEX 01 02:38:63
  TRACK 79 AUDIO
    TITLE "3:cjc151_3864"
    INDEX 01 02:40:41
  TRACK 80 AUDIO
    TITLE "0:"
    INDEX 01 02:43:63
  TRACK 81 AUDIO
    TITLE "2:cjc151_3865"
    INDEX 01 02:45:38
  TRACK 82 AUDIO
    TITLE "0:"
    INDEX 01 02:46:51
  TRACK 83 AUDIO
    TITLE "3:cjc151_3866"
    INDEX 01 02:48:28
  TRACK 84 AUDIO
    TITLE "0:"
    INDEX 01 02:52:03
  TRACK 85 AUDIO
    TITLE "2:cjc151_3867"
    INDEX 01 02:53:55
  TRACK 86 AUDIO
    TITLE "0:"
    INDEX 01 02:54:64
  TRACK 87 AUDIO
    TITLE "3:cjc151_3868"
    INDEX 01 02:56:48
  TRACK 88 AUDIO
    TITLE "0:"
    INDEX 01 03:00:55
